<svg width="672" height="100" viewBox="0 0 672 100" fill="none" xmlns="http://www.w3.org/2000/svg">
<g clip-path="url(#clip0_57_36)">
<mask id="path-1-outside-1_57_36" maskUnits="userSpaceOnUse" x="0" y="0" width="671" height="101" fill="black">
<rect fill="white" width="671" height="101"/>
<path d="M50.028 4.73599L93.924 96H77.928L70.116 78.144H28.328L20.516 96H5.016L48.664 4.73599H50.028ZM43.828 43.548L33.908 65.62H64.66L54.864 43.672L49.532 31.148H49.284L43.828 43.548ZM108.999 4.86H132.187C145.248 4.86 153.928 7.05066 158.227 11.432C162.525 15.8133 164.675 21.104 164.675 27.304C164.675 31.4373 163.765 35.364 161.947 39.084C160.128 42.7213 157.235 45.4493 153.267 47.268C159.136 48.756 163.435 51.36 166.163 55.08C168.973 58.8 170.379 63.1813 170.379 68.224C170.379 73.5147 169.552 78.144 167.899 82.112C166.245 86.08 162.815 89.3867 157.607 92.032C152.399 94.6773 144.876 96 135.039 96H108.999V4.86ZM134.419 43.548C140.288 43.548 144.463 42.1427 146.943 39.332C149.423 36.4387 150.663 32.8013 150.663 28.42C150.663 20.5667 145.041 16.64 133.799 16.64H122.639V43.548H134.419ZM136.899 84.344C144.421 84.344 149.464 82.856 152.027 79.88C154.672 76.8213 155.995 72.9773 155.995 68.348C155.995 63.9667 154.507 60.5773 151.531 58.18C148.555 55.7827 144.049 54.584 138.015 54.584H122.639V84.344H136.899ZM235.972 97.24C227.705 97.24 220.058 95.3387 213.032 91.536C206.088 87.6507 200.549 82.1533 196.416 75.044C192.282 67.9347 190.216 59.668 190.216 50.244C190.216 40.7373 192.282 32.4707 196.416 25.444C200.549 18.3347 206.088 12.8787 213.032 9.076C220.058 5.27333 227.705 3.372 235.972 3.372C244.238 3.372 251.844 5.27333 258.788 9.076C265.814 12.8787 271.394 18.3347 275.528 25.444C279.661 32.4707 281.728 40.7373 281.728 50.244C281.728 59.668 279.661 67.9347 275.528 75.044C271.394 82.1533 265.814 87.6507 258.788 91.536C251.844 95.3387 244.238 97.24 235.972 97.24ZM235.972 84.716C241.676 84.716 246.884 83.3933 251.596 80.748C256.308 78.02 260.028 74.0933 262.756 68.968C265.566 63.76 266.972 57.56 266.972 50.368C266.972 43.0933 265.566 36.8933 262.756 31.768C260.028 26.56 256.308 22.6333 251.596 19.988C246.966 17.3427 241.758 16.02 235.972 16.02C230.185 16.02 224.936 17.3427 220.224 19.988C215.512 22.6333 211.792 26.56 209.064 31.768C206.336 36.8933 204.972 43.0933 204.972 50.368C204.972 57.56 206.377 63.76 209.188 68.968C211.998 74.0933 215.76 78.02 220.472 80.748C225.266 83.3933 230.433 84.716 235.972 84.716ZM336.044 97.24C324.636 97.24 316.369 93.8093 311.244 86.948C306.118 80.0867 303.556 70.1253 303.556 57.064V4.86H317.444V57.312C317.444 66.984 318.89 73.928 321.784 78.144C324.677 82.2773 329.43 84.344 336.044 84.344C342.657 84.344 347.369 82.3187 350.18 78.268C353.073 74.1347 354.52 67.1493 354.52 57.312V4.86H368.532V57.064C368.532 70.0427 365.804 80.004 360.348 86.948C354.974 93.8093 346.873 97.24 336.044 97.24ZM409.151 17.012H385.839V4.86H446.475V17.012H422.915V96H409.151V17.012ZM528.557 53.468L522.853 40.572L520.249 53.468L511.817 96H498.053L516.901 4.86H518.389L543.437 54.088L550.877 70.58L558.317 54.088L582.869 4.86H584.233L603.825 96H590.185L581.009 53.468L578.281 40.572L573.321 53.468L551.249 96H550.505L528.557 53.468ZM623.358 4.86H663.286V17.012H637.122V42.184H658.202V54.584H637.122V83.724H667.378V96H623.358V4.86Z"/>
</mask>
<path d="M50.028 4.73599L52.7315 3.43565L51.914 1.73599H50.028V4.73599ZM93.924 96V99H98.6959L96.6275 94.6997L93.924 96ZM77.928 96L75.1795 97.2025L75.966 99H77.928V96ZM70.116 78.144L72.8645 76.9415L72.078 75.144H70.116V78.144ZM28.328 78.144V75.144H26.366L25.5795 76.9415L28.328 78.144ZM20.516 96V99H22.478L23.2645 97.2025L20.516 96ZM5.016 96L2.3096 94.7056L0.25577 99H5.016V96ZM48.664 4.73599V1.73599H46.7733L45.9576 3.44163L48.664 4.73599ZM43.828 43.548L46.5643 44.7778L46.5692 44.767L46.5739 44.7562L43.828 43.548ZM33.908 65.62L31.1717 64.3902L29.2706 68.62H33.908V65.62ZM64.66 65.62V68.62H69.2842L67.3995 64.3973L64.66 65.62ZM54.864 43.672L52.1037 44.8472L52.1139 44.871L52.1245 44.8947L54.864 43.672ZM49.532 31.148L52.2923 29.9728L51.5153 28.148H49.532V31.148ZM49.284 31.148V28.148H47.3264L46.5381 29.9398L49.284 31.148ZM47.3245 6.03633L91.2205 97.3003L96.6275 94.6997L52.7315 3.43565L47.3245 6.03633ZM93.924 93H77.928V99H93.924V93ZM80.6765 94.7975L72.8645 76.9415L67.3675 79.3465L75.1795 97.2025L80.6765 94.7975ZM70.116 75.144H28.328V81.144H70.116V75.144ZM25.5795 76.9415L17.7675 94.7975L23.2645 97.2025L31.0765 79.3465L25.5795 76.9415ZM20.516 93H5.016V99H20.516V93ZM7.7224 97.2944L51.3704 6.03036L45.9576 3.44163L2.3096 94.7056L7.7224 97.2944ZM48.664 7.73599H50.028V1.73599H48.664V7.73599ZM41.0917 42.3182L31.1717 64.3902L36.6443 66.8498L46.5643 44.7778L41.0917 42.3182ZM33.908 68.62H64.66V62.62H33.908V68.62ZM67.3995 64.3973L57.6035 42.4493L52.1245 44.8947L61.9205 66.8427L67.3995 64.3973ZM57.6243 42.4968L52.2923 29.9728L46.7717 32.3232L52.1037 44.8472L57.6243 42.4968ZM49.532 28.148H49.284V34.148H49.532V28.148ZM46.5381 29.9398L41.0821 42.3398L46.5739 44.7562L52.0299 32.3562L46.5381 29.9398ZM108.999 4.86V1.86H105.999V4.86H108.999ZM158.227 11.432L160.368 9.33097L160.368 9.33097L158.227 11.432ZM161.947 39.084L164.63 40.4256L164.636 40.4137L164.642 40.4016L161.947 39.084ZM153.267 47.268L152.017 44.5408L144.283 48.0854L152.529 50.176L153.267 47.268ZM166.163 55.08L163.744 56.8541L163.756 56.8714L163.769 56.8885L166.163 55.08ZM167.899 82.112L170.668 83.2658L170.668 83.2658L167.899 82.112ZM157.607 92.032L156.248 89.3573L157.607 92.032ZM108.999 96H105.999V99H108.999V96ZM146.943 39.332L149.192 41.3169L149.206 41.3007L149.22 41.2844L146.943 39.332ZM122.639 16.64V13.64H119.639V16.64H122.639ZM122.639 43.548H119.639V46.548H122.639V43.548ZM152.027 79.88L149.758 77.9175L149.753 77.9224L152.027 79.88ZM151.531 58.18L149.649 60.5163L149.649 60.5163L151.531 58.18ZM122.639 54.584V51.584H119.639V54.584H122.639ZM122.639 84.344H119.639V87.344H122.639V84.344ZM108.999 7.86H132.187V1.86H108.999V7.86ZM132.187 7.86C138.572 7.86 143.741 8.39776 147.759 9.41179C151.795 10.4304 154.46 11.8765 156.085 13.533L160.368 9.33097C157.695 6.60619 153.871 4.76626 149.227 3.59421C144.565 2.41757 138.863 1.86 132.187 1.86V7.86ZM156.085 13.533C159.827 17.3472 161.675 21.8809 161.675 27.304H167.675C167.675 20.3271 165.223 14.2795 160.368 9.33097L156.085 13.533ZM161.675 27.304C161.675 30.9798 160.87 34.4559 159.252 37.7664L164.642 40.4016C166.661 36.2721 167.675 31.8949 167.675 27.304H161.675ZM159.263 37.7424C157.774 40.7215 155.412 42.9847 152.017 44.5408L154.517 49.9952C159.058 47.914 162.482 44.7211 164.63 40.4256L159.263 37.7424ZM152.529 50.176C157.937 51.5469 161.541 53.8509 163.744 56.8541L168.582 53.3059C165.328 48.8691 160.335 45.9651 154.004 44.36L152.529 50.176ZM163.769 56.8885C166.154 60.0443 167.379 63.7776 167.379 68.224H173.379C173.379 62.5851 171.793 57.5557 168.556 53.2715L163.769 56.8885ZM167.379 68.224C167.379 73.2073 166.6 77.4296 165.129 80.9582L170.668 83.2658C172.504 78.8584 173.379 73.822 173.379 68.224H167.379ZM165.129 80.9582C163.835 84.0641 161.049 86.9188 156.248 89.3573L158.965 94.7067C164.581 91.8546 168.655 88.0959 170.668 83.2658L165.129 80.9582ZM156.248 89.3573C151.656 91.6898 144.686 93 135.039 93V99C145.066 99 153.141 97.6649 158.965 94.7067L156.248 89.3573ZM135.039 93H108.999V99H135.039V93ZM111.999 96V4.86H105.999V96H111.999ZM134.419 46.548C140.666 46.548 145.887 45.063 149.192 41.3169L144.693 37.3471C143.039 39.2224 139.91 40.548 134.419 40.548V46.548ZM149.22 41.2844C152.236 37.7668 153.663 33.4038 153.663 28.42H147.663C147.663 32.1989 146.61 35.1105 144.665 37.3796L149.22 41.2844ZM153.663 28.42C153.663 23.6779 151.905 19.7382 148.165 17.1256C144.621 14.6499 139.677 13.64 133.799 13.64V19.64C139.163 19.64 142.652 20.5934 144.729 22.0444C146.61 23.3585 147.663 25.3088 147.663 28.42H153.663ZM133.799 13.64H122.639V19.64H133.799V13.64ZM119.639 16.64V43.548H125.639V16.64H119.639ZM122.639 46.548H134.419V40.548H122.639V46.548ZM136.899 87.344C144.57 87.344 150.822 85.8764 154.3 81.8376L149.753 77.9224C148.106 79.8356 144.273 81.344 136.899 81.344V87.344ZM154.296 81.8425C157.48 78.1603 158.995 73.5872 158.995 68.348H152.995C152.995 72.3675 151.864 75.4824 149.758 77.9175L154.296 81.8425ZM158.995 68.348C158.995 63.2086 157.205 58.8983 153.413 55.8437L149.649 60.5163C151.809 62.2564 152.995 64.7248 152.995 68.348H158.995ZM153.413 55.8437C149.672 52.8304 144.362 51.584 138.015 51.584V57.584C143.737 57.584 147.437 58.735 149.649 60.5163L153.413 55.8437ZM138.015 51.584H122.639V57.584H138.015V51.584ZM119.639 54.584V84.344H125.639V54.584H119.639ZM122.639 87.344H136.899V81.344H122.639V87.344ZM213.032 91.536L211.567 94.154L211.585 94.1644L211.604 94.1744L213.032 91.536ZM196.416 75.044L199.009 73.5361L199.009 73.5361L196.416 75.044ZM196.416 25.444L199.002 26.9651L199.005 26.9585L199.009 26.9519L196.416 25.444ZM213.032 9.076L211.604 6.43758L211.597 6.44113L211.591 6.44471L213.032 9.076ZM258.788 9.076L257.347 11.7073L257.353 11.7109L257.36 11.7144L258.788 9.076ZM275.528 25.444L272.934 26.9519L272.938 26.9585L272.942 26.9651L275.528 25.444ZM275.528 75.044L272.934 73.5361L272.934 73.5361L275.528 75.044ZM258.788 91.536L260.229 94.1673L260.24 94.1614L258.788 91.536ZM251.596 80.748L253.064 83.364L253.082 83.3542L253.099 83.3443L251.596 80.748ZM262.756 68.968L260.116 67.5432L260.112 67.5508L260.108 67.5585L262.756 68.968ZM262.756 31.768L260.098 33.16L260.112 33.1854L260.125 33.2105L262.756 31.768ZM251.596 19.988L250.107 22.5927L250.117 22.5984L250.127 22.6039L251.596 19.988ZM220.224 19.988L218.755 17.372L218.755 17.372L220.224 19.988ZM209.064 31.768L211.712 33.1775L211.717 33.1688L211.721 33.16L209.064 31.768ZM209.188 68.968L206.548 70.3928L206.553 70.4017L206.557 70.4105L209.188 68.968ZM220.472 80.748L218.969 83.3443L218.995 83.3598L219.023 83.3747L220.472 80.748ZM235.972 94.24C228.186 94.24 221.032 92.4545 214.46 88.8976L211.604 94.1744C219.085 98.2228 227.225 100.24 235.972 100.24V94.24ZM214.497 88.918C208.038 85.304 202.882 80.1973 199.009 73.5361L193.822 76.5519C198.216 84.1094 204.138 89.9973 211.567 94.154L214.497 88.918ZM199.009 73.5361C195.179 66.9482 193.216 59.2168 193.216 50.244H187.216C187.216 60.1192 189.386 68.9212 193.822 76.5519L199.009 73.5361ZM193.216 50.244C193.216 41.1823 195.182 33.4589 199.002 26.9651L193.83 23.9229C189.383 31.4824 187.216 40.2923 187.216 50.244H193.216ZM199.009 26.9519C202.879 20.2958 208.027 15.237 214.473 11.7073L211.591 6.44471C204.148 10.5203 198.219 16.3735 193.822 23.9361L199.009 26.9519ZM214.46 11.7144C221.032 8.15746 228.186 6.372 235.972 6.372V0.371995C227.225 0.371995 219.085 2.3892 211.604 6.43758L214.46 11.7144ZM235.972 6.372C243.758 6.372 250.864 8.15737 257.347 11.7073L260.229 6.44471C252.823 2.38928 244.719 0.371995 235.972 0.371995V6.372ZM257.36 11.7144C263.887 15.2466 269.07 20.3047 272.934 26.9519L278.121 23.9361C273.719 16.3646 267.742 10.5107 260.216 6.43758L257.36 11.7144ZM272.942 26.9651C276.762 33.4589 278.728 41.1823 278.728 50.244H284.728C284.728 40.2923 282.56 31.4824 278.114 23.9229L272.942 26.9651ZM278.728 50.244C278.728 59.2168 276.765 66.9482 272.934 73.5361L278.121 76.5519C282.558 68.9212 284.728 60.1192 284.728 50.244H278.728ZM272.934 73.5361C269.067 80.1885 263.876 85.2943 257.336 88.9106L260.24 94.1614C267.753 90.007 273.722 84.1181 278.121 76.5519L272.934 73.5361ZM257.347 88.9047C250.864 92.4546 243.758 94.24 235.972 94.24V100.24C244.719 100.24 252.823 98.2227 260.229 94.1673L257.347 88.9047ZM235.972 87.716C242.161 87.716 247.879 86.2752 253.064 83.364L250.127 78.132C245.889 80.5115 241.191 81.716 235.972 81.716V87.716ZM253.099 83.3443C258.329 80.3166 262.431 75.9634 265.404 70.3775L260.108 67.5585C257.625 72.2233 254.287 75.7234 250.093 78.1517L253.099 83.3443ZM265.396 70.3928C268.489 64.6623 269.972 57.9513 269.972 50.368H263.972C263.972 57.1687 262.644 62.8577 260.116 67.5432L265.396 70.3928ZM269.972 50.368C269.972 42.7105 268.492 35.9885 265.386 30.3255L260.125 33.2105C262.641 37.7982 263.972 43.4761 263.972 50.368H269.972ZM265.413 30.376C262.441 24.7007 258.327 20.3267 253.064 17.372L250.127 22.6039C254.288 24.94 257.615 28.4193 260.098 33.16L265.413 30.376ZM253.084 17.3833C247.963 14.4571 242.235 13.02 235.972 13.02V19.02C241.282 19.02 245.97 20.2283 250.107 22.5927L253.084 17.3833ZM235.972 13.02C229.708 13.02 223.947 14.4571 218.755 17.372L221.692 22.6039C225.924 20.2282 230.662 19.02 235.972 19.02V13.02ZM218.755 17.372C213.492 20.3267 209.379 24.7007 206.406 30.376L211.721 33.16C214.205 28.4193 217.531 24.94 221.692 22.6039L218.755 17.372ZM206.416 30.3585C203.405 36.0139 201.972 42.7237 201.972 50.368H207.972C207.972 43.463 209.266 37.7727 211.712 33.1775L206.416 30.3585ZM201.972 50.368C201.972 57.9513 203.455 64.6623 206.548 70.3928L211.828 67.5432C209.299 62.8577 207.972 57.1687 207.972 50.368H201.972ZM206.557 70.4105C209.611 75.9794 213.748 80.3216 218.969 83.3443L221.975 78.1517C217.772 75.7184 214.386 72.2072 211.818 67.5255L206.557 70.4105ZM219.023 83.3747C224.266 86.2678 229.932 87.716 235.972 87.716V81.716C230.934 81.716 226.267 80.5188 221.921 78.1213L219.023 83.3747ZM311.244 86.948L313.647 85.1526L313.647 85.1526L311.244 86.948ZM303.556 4.86V1.86H300.556V4.86H303.556ZM317.444 4.86H320.444V1.86H317.444V4.86ZM321.784 78.144L319.31 79.8415L319.318 79.853L319.326 79.8644L321.784 78.144ZM350.18 78.268L347.722 76.5476L347.715 76.5578L350.18 78.268ZM354.52 4.86V1.86H351.52V4.86H354.52ZM368.532 4.86H371.532V1.86H368.532V4.86ZM360.348 86.948L357.989 85.0945L357.986 85.0983L360.348 86.948ZM336.044 94.24C325.241 94.24 318.029 91.0188 313.647 85.1526L308.84 88.7434C314.709 96.5999 324.031 100.24 336.044 100.24V94.24ZM313.647 85.1526C309.065 79.0183 306.556 69.7989 306.556 57.064H300.556C300.556 70.4518 303.172 81.155 308.84 88.7434L313.647 85.1526ZM306.556 57.064V4.86H300.556V57.064H306.556ZM303.556 7.86H317.444V1.86H303.556V7.86ZM314.444 4.86V57.312H320.444V4.86H314.444ZM314.444 57.312C314.444 67.1301 315.883 74.8477 319.31 79.8415L324.257 76.4465C321.898 73.0083 320.444 66.8379 320.444 57.312H314.444ZM319.326 79.8644C322.949 85.0404 328.788 87.344 336.044 87.344V81.344C330.073 81.344 326.405 79.5142 324.241 76.4236L319.326 79.8644ZM336.044 87.344C343.272 87.344 349.092 85.0984 352.644 79.9782L347.715 76.5578C345.646 79.5389 342.042 81.344 336.044 81.344V87.344ZM352.637 79.9884C356.088 75.0596 357.52 67.2733 357.52 57.312H351.52C351.52 67.0253 350.058 73.2098 347.722 76.5476L352.637 79.9884ZM357.52 57.312V4.86H351.52V57.312H357.52ZM354.52 7.86H368.532V1.86H354.52V7.86ZM365.532 4.86V57.064H371.532V4.86H365.532ZM365.532 57.064C365.532 69.6746 362.874 78.8768 357.989 85.0945L362.707 88.8015C368.733 81.1312 371.532 70.4107 371.532 57.064H365.532ZM357.986 85.0983C353.318 91.0592 346.198 94.24 336.044 94.24V100.24C347.549 100.24 356.631 96.5595 362.71 88.7977L357.986 85.0983ZM409.151 17.012H412.151V14.012H409.151V17.012ZM385.839 17.012H382.839V20.012H385.839V17.012ZM385.839 4.86V1.86H382.839V4.86H385.839ZM446.475 4.86H449.475V1.86H446.475V4.86ZM446.475 17.012V20.012H449.475V17.012H446.475ZM422.915 17.012V14.012H419.915V17.012H422.915ZM422.915 96V99H425.915V96H422.915ZM409.151 96H406.151V99H409.151V96ZM409.151 14.012H385.839V20.012H409.151V14.012ZM388.839 17.012V4.86H382.839V17.012H388.839ZM385.839 7.86H446.475V1.86H385.839V7.86ZM443.475 4.86V17.012H449.475V4.86H443.475ZM446.475 14.012H422.915V20.012H446.475V14.012ZM419.915 17.012V96H425.915V17.012H419.915ZM422.915 93H409.151V99H422.915V93ZM412.151 96V17.012H406.151V96H412.151ZM528.557 53.468L525.813 54.6815L525.849 54.7638L525.891 54.8437L528.557 53.468ZM522.853 40.572L525.596 39.3585L521.78 30.7294L519.912 39.9782L522.853 40.572ZM520.249 53.468L517.308 52.8742L517.306 52.8846L520.249 53.468ZM511.817 96V99H514.28L514.759 96.5834L511.817 96ZM498.053 96L495.115 95.3924L494.369 99H498.053V96ZM516.901 4.86V1.86H514.458L513.963 4.25245L516.901 4.86ZM518.389 4.86L521.062 3.49953L520.228 1.86H518.389V4.86ZM543.437 54.088L546.171 52.8543L546.142 52.7902L546.11 52.7275L543.437 54.088ZM550.877 70.58L548.142 71.8137L550.877 77.8754L553.611 71.8137L550.877 70.58ZM558.317 54.088L555.632 52.7491L555.606 52.8012L555.582 52.8543L558.317 54.088ZM582.869 4.86V1.86H581.012L580.184 3.52106L582.869 4.86ZM584.233 4.86L587.166 4.2295L586.656 1.86H584.233V4.86ZM603.825 96V99H607.538L606.758 95.3695L603.825 96ZM590.185 96L587.252 96.6327L587.763 99H590.185V96ZM581.009 53.468L578.074 54.0889L578.076 54.1007L581.009 53.468ZM578.281 40.572L581.216 39.9511L579.118 30.0367L575.481 39.4951L578.281 40.572ZM573.321 53.468L575.983 54.8499L576.061 54.7012L576.121 54.5449L573.321 53.468ZM551.249 96V99H553.072L553.911 97.3819L551.249 96ZM550.505 96L547.839 97.3757L548.677 99H550.505V96ZM531.3 52.2545L525.596 39.3585L520.109 41.7855L525.813 54.6815L531.3 52.2545ZM519.912 39.9782L517.308 52.8742L523.189 54.0618L525.793 41.1658L519.912 39.9782ZM517.306 52.8846L508.874 95.4166L514.759 96.5834L523.191 54.0514L517.306 52.8846ZM511.817 93H498.053V99H511.817V93ZM500.99 96.6076L519.838 5.46755L513.963 4.25245L495.115 95.3924L500.99 96.6076ZM516.901 7.86H518.389V1.86H516.901V7.86ZM515.715 6.22046L540.763 55.4485L546.11 52.7275L521.062 3.49953L515.715 6.22046ZM540.702 55.3217L548.142 71.8137L553.611 69.3463L546.171 52.8543L540.702 55.3217ZM553.611 71.8137L561.051 55.3217L555.582 52.8543L548.142 69.3463L553.611 71.8137ZM561.001 55.4269L585.553 6.19893L580.184 3.52106L555.632 52.7491L561.001 55.4269ZM582.869 7.86H584.233V1.86H582.869V7.86ZM581.3 5.49049L600.892 96.6305L606.758 95.3695L587.166 4.2295L581.3 5.49049ZM603.825 93H590.185V99H603.825V93ZM593.117 95.3673L583.941 52.8353L578.076 54.1007L587.252 96.6327L593.117 95.3673ZM583.944 52.8471L581.216 39.9511L575.346 41.1929L578.074 54.0889L583.944 52.8471ZM575.481 39.4951L570.521 52.3911L576.121 54.5449L581.081 41.6489L575.481 39.4951ZM570.658 52.0861L548.586 94.6181L553.911 97.3819L575.983 54.8499L570.658 52.0861ZM551.249 93H550.505V99H551.249V93ZM553.171 94.6243L531.223 52.0923L525.891 54.8437L547.839 97.3757L553.171 94.6243ZM623.358 4.86V1.86H620.358V4.86H623.358ZM663.286 4.86H666.286V1.86H663.286V4.86ZM663.286 17.012V20.012H666.286V17.012H663.286ZM637.122 17.012V14.012H634.122V17.012H637.122ZM637.122 42.184H634.122V45.184H637.122V42.184ZM658.202 42.184H661.202V39.184H658.202V42.184ZM658.202 54.584V57.584H661.202V54.584H658.202ZM637.122 54.584V51.584H634.122V54.584H637.122ZM637.122 83.724H634.122V86.724H637.122V83.724ZM667.378 83.724H670.378V80.724H667.378V83.724ZM667.378 96V99H670.378V96H667.378ZM623.358 96H620.358V99H623.358V96ZM623.358 7.86H663.286V1.86H623.358V7.86ZM660.286 4.86V17.012H666.286V4.86H660.286ZM663.286 14.012H637.122V20.012H663.286V14.012ZM634.122 17.012V42.184H640.122V17.012H634.122ZM637.122 45.184H658.202V39.184H637.122V45.184ZM655.202 42.184V54.584H661.202V42.184H655.202ZM658.202 51.584H637.122V57.584H658.202V51.584ZM634.122 54.584V83.724H640.122V54.584H634.122ZM637.122 86.724H667.378V80.724H637.122V86.724ZM664.378 83.724V96H670.378V83.724H664.378ZM667.378 93H623.358V99H667.378V93ZM626.358 96V4.86H620.358V96H626.358Z" fill="url(#paint0_linear_57_36)" fill-opacity="0.16" mask="url(#path-1-outside-1_57_36)"/>
</g>
<defs>
<linearGradient id="paint0_linear_57_36" x1="672" y1="45.5" x2="7" y2="45.5" gradientUnits="userSpaceOnUse">
<stop stop-color="white" stop-opacity="0.1"/>
<stop offset="1" stop-color="white"/>
</linearGradient>
<clipPath id="clip0_57_36">
<rect width="672" height="100" fill="white"/>
</clipPath>
</defs>
</svg>
