<svg width="100" height="672" viewBox="0 0 100 672" fill="none" xmlns="http://www.w3.org/2000/svg">
<g clip-path="url(#clip0_57_36)">
<mask id="path-1-outside-1_57_36" maskUnits="userSpaceOnUse" x="0" y="2" width="101" height="671" fill="black">
<rect fill="white" y="2" width="101" height="671"/>
<path d="M4.73599 622.972L96 579.076V595.072L78.144 602.884V644.672L96 652.484V667.984L4.73599 624.336V622.972ZM43.548 629.172L65.62 639.092V608.34L43.672 618.136L31.148 623.468V623.716L43.548 629.172ZM4.86 564.001V540.813C4.86 527.752 7.05066 519.072 11.432 514.773C15.8133 510.475 21.104 508.325 27.304 508.325C31.4373 508.325 35.364 509.235 39.084 511.053C42.7213 512.872 45.4493 515.765 47.268 519.733C48.756 513.864 51.36 509.565 55.08 506.837C58.8 504.027 63.1813 502.621 68.224 502.621C73.5147 502.621 78.144 503.448 82.112 505.101C86.08 506.755 89.3867 510.185 92.032 515.393C94.6773 520.601 96 528.124 96 537.961V564.001H4.86ZM43.548 538.581C43.548 532.712 42.1427 528.537 39.332 526.057C36.4387 523.577 32.8013 522.337 28.42 522.337C20.5667 522.337 16.64 527.959 16.64 539.201V550.361H43.548L43.548 538.581ZM84.344 536.101C84.344 528.579 82.856 523.536 79.88 520.973C76.8213 518.328 72.9773 517.005 68.348 517.005C63.9667 517.005 60.5773 518.493 58.18 521.469C55.7827 524.445 54.584 528.951 54.584 534.985L54.584 550.361H84.344L84.344 536.101ZM97.24 437.028C97.24 445.295 95.3387 452.942 91.536 459.968C87.6507 466.912 82.1533 472.451 75.044 476.584C67.9347 480.718 59.668 482.784 50.244 482.784C40.7373 482.784 32.4707 480.718 25.444 476.584C18.3347 472.451 12.8787 466.912 9.076 459.968C5.27333 452.942 3.372 445.295 3.372 437.028C3.372 428.762 5.27333 421.156 9.076 414.212C12.8787 407.186 18.3347 401.606 25.444 397.472C32.4707 393.339 40.7373 391.272 50.244 391.272C59.668 391.272 67.9347 393.339 75.044 397.472C82.1533 401.606 87.6507 407.186 91.536 414.212C95.3387 421.156 97.24 428.762 97.24 437.028ZM84.716 437.028C84.716 431.324 83.3933 426.116 80.748 421.404C78.02 416.692 74.0933 412.972 68.968 410.244C63.76 407.434 57.56 406.028 50.368 406.028C43.0933 406.028 36.8933 407.434 31.768 410.244C26.56 412.972 22.6333 416.692 19.988 421.404C17.3427 426.034 16.02 431.242 16.02 437.028C16.02 442.815 17.3427 448.064 19.988 452.776C22.6333 457.488 26.56 461.208 31.768 463.936C36.8933 466.664 43.0933 468.028 50.368 468.028C57.56 468.028 63.76 466.623 68.968 463.812C74.0933 461.002 78.02 457.24 80.748 452.528C83.3933 447.734 84.716 442.567 84.716 437.028ZM97.24 336.956C97.24 348.364 93.8093 356.631 86.948 361.756C80.0867 366.882 70.1253 369.444 57.064 369.444H4.86V355.556H57.312C66.984 355.556 73.928 354.11 78.144 351.216C82.2773 348.323 84.344 343.57 84.344 336.956C84.344 330.343 82.3187 325.631 78.268 322.82C74.1347 319.927 67.1493 318.48 57.312 318.48H4.86V304.468H57.064C70.0427 304.468 80.004 307.196 86.948 312.652C93.8093 318.026 97.24 326.127 97.24 336.956ZM17.012 263.849V287.161H4.86L4.86 226.525H17.012V250.085H96V263.849H17.012ZM53.468 144.443L40.572 150.147L53.468 152.751L96 161.183V174.947L4.86 156.099V154.611L54.088 129.563L70.58 122.123L54.088 114.683L4.86 90.1314V88.7674L96 69.1754V82.8154L53.468 91.9914L40.572 94.7194L53.468 99.6794L96 121.751V122.495L53.468 144.443ZM4.86 49.6415L4.86 9.71351H17.012L17.012 35.8775H42.184V14.7975H54.584V35.8775H83.724V5.62151H96V49.6415H4.86Z"/>
</mask>
<path d="M4.73599 622.972L3.43565 620.268L1.73599 621.086V622.972H4.73599ZM96 579.076H99V574.304L94.6997 576.372L96 579.076ZM96 595.072L97.2025 597.82L99 597.034V595.072H96ZM78.144 602.884L76.9415 600.136L75.144 600.922V602.884H78.144ZM78.144 644.672H75.144V646.634L76.9415 647.42L78.144 644.672ZM96 652.484H99V650.522L97.2025 649.736L96 652.484ZM96 667.984L94.7056 670.69L99 672.744V667.984H96ZM4.73599 624.336H1.73599V626.227L3.44163 627.042L4.73599 624.336ZM43.548 629.172L44.7778 626.436L44.767 626.431L44.7562 626.426L43.548 629.172ZM65.62 639.092L64.3902 641.828L68.62 643.729V639.092H65.62ZM65.62 608.34H68.62V603.716L64.3973 605.6L65.62 608.34ZM43.672 618.136L44.8472 620.896L44.871 620.886L44.8947 620.876L43.672 618.136ZM31.148 623.468L29.9728 620.708L28.148 621.485V623.468H31.148ZM31.148 623.716H28.148V625.674L29.9398 626.462L31.148 623.716ZM6.03633 625.676L97.3003 581.78L94.6997 576.372L3.43565 620.268L6.03633 625.676ZM93 579.076V595.072H99V579.076H93ZM94.7975 592.324L76.9415 600.136L79.3465 605.632L97.2025 597.82L94.7975 592.324ZM75.144 602.884V644.672H81.144V602.884H75.144ZM76.9415 647.42L94.7975 655.232L97.2025 649.736L79.3465 641.924L76.9415 647.42ZM93 652.484V667.984H99V652.484H93ZM97.2944 665.278L6.03036 621.63L3.44163 627.042L94.7056 670.69L97.2944 665.278ZM7.73599 624.336V622.972H1.73599V624.336H7.73599ZM42.3182 631.908L64.3902 641.828L66.8498 636.356L44.7778 626.436L42.3182 631.908ZM68.62 639.092V608.34H62.62V639.092H68.62ZM64.3973 605.6L42.4493 615.396L44.8947 620.876L66.8427 611.08L64.3973 605.6ZM42.4968 615.376L29.9728 620.708L32.3232 626.228L44.8472 620.896L42.4968 615.376ZM28.148 623.468V623.716H34.148V623.468H28.148ZM29.9398 626.462L42.3398 631.918L44.7562 626.426L32.3562 620.97L29.9398 626.462ZM4.86 564.001H1.86V567.001H4.86V564.001ZM11.432 514.773L9.33097 512.632L9.33097 512.632L11.432 514.773ZM39.084 511.053L40.4256 508.37L40.4137 508.364L40.4016 508.358L39.084 511.053ZM47.268 519.733L44.5408 520.983L48.0854 528.717L50.176 520.471L47.268 519.733ZM55.08 506.837L56.8541 509.256L56.8714 509.244L56.8885 509.231L55.08 506.837ZM82.112 505.101L83.2658 502.332L83.2658 502.332L82.112 505.101ZM92.032 515.393L89.3573 516.752L92.032 515.393ZM96 564.001V567.001H99V564.001H96ZM39.332 526.057L41.3169 523.808L41.3007 523.794L41.2844 523.78L39.332 526.057ZM16.64 550.361H13.64V553.361H16.64V550.361ZM43.548 550.361V553.361H46.548V550.361H43.548ZM79.88 520.973L77.9175 523.242L77.9224 523.247L79.88 520.973ZM58.18 521.469L60.5163 523.351L60.5163 523.351L58.18 521.469ZM54.584 550.361H51.584V553.361H54.584V550.361ZM84.344 550.361V553.361H87.344V550.361H84.344ZM7.86 564.001V540.813H1.86V564.001H7.86ZM7.86 540.813C7.86 534.428 8.39776 529.259 9.41179 525.241C10.4304 521.205 11.8765 518.54 13.533 516.915L9.33097 512.632C6.60619 515.305 4.76626 519.129 3.59421 523.773C2.41757 528.435 1.86 534.137 1.86 540.813H7.86ZM13.533 516.915C17.3472 513.173 21.8809 511.325 27.304 511.325V505.325C20.3271 505.325 14.2795 507.777 9.33097 512.632L13.533 516.915ZM27.304 511.325C30.9798 511.325 34.4559 512.13 37.7664 513.748L40.4016 508.358C36.2721 506.339 31.8949 505.325 27.304 505.325V511.325ZM37.7424 513.737C40.7215 515.226 42.9847 517.588 44.5408 520.983L49.9952 518.483C47.914 513.942 44.7211 510.518 40.4256 508.37L37.7424 513.737ZM50.176 520.471C51.5469 515.063 53.8509 511.459 56.8541 509.256L53.3059 504.418C48.8691 507.672 45.9651 512.665 44.36 518.996L50.176 520.471ZM56.8885 509.231C60.0443 506.846 63.7776 505.621 68.224 505.621V499.621C62.5851 499.621 57.5557 501.207 53.2715 504.444L56.8885 509.231ZM68.224 505.621C73.2073 505.621 77.4296 506.4 80.9582 507.871L83.2658 502.332C78.8584 500.496 73.822 499.621 68.224 499.621V505.621ZM80.9582 507.871C84.0641 509.165 86.9188 511.951 89.3573 516.752L94.7067 514.035C91.8546 508.419 88.0959 504.345 83.2658 502.332L80.9582 507.871ZM89.3573 516.752C91.6898 521.344 93 528.314 93 537.961H99C99 527.934 97.6649 519.859 94.7067 514.035L89.3573 516.752ZM93 537.961V564.001H99V537.961H93ZM96 561.001H4.86V567.001H96V561.001ZM46.548 538.581C46.548 532.334 45.063 527.113 41.3169 523.808L37.3471 528.307C39.2224 529.961 40.548 533.09 40.548 538.581H46.548ZM41.2844 523.78C37.7668 520.764 33.4038 519.337 28.42 519.337V525.337C32.1989 525.337 35.1105 526.39 37.3796 528.335L41.2844 523.78ZM28.42 519.337C23.6779 519.337 19.7382 521.095 17.1256 524.835C14.6499 528.379 13.64 533.323 13.64 539.201H19.64C19.64 533.837 20.5934 530.348 22.0444 528.271C23.3585 526.39 25.3088 525.337 28.42 525.337V519.337ZM13.64 539.201V550.361H19.64V539.201H13.64ZM16.64 553.361H43.548L43.548 547.361H16.64V553.361ZM46.548 550.361L46.548 538.581H40.548L40.548 550.361H46.548ZM87.344 536.101C87.344 528.43 85.8764 522.178 81.8376 518.7L77.9224 523.247C79.8356 524.894 81.344 528.727 81.344 536.101H87.344ZM81.8425 518.704C78.1603 515.52 73.5872 514.005 68.348 514.005V520.005C72.3675 520.005 75.4824 521.136 77.9175 523.242L81.8425 518.704ZM68.348 514.005C63.2086 514.005 58.8983 515.795 55.8437 519.587L60.5163 523.351C62.2564 521.191 64.7248 520.005 68.348 520.005V514.005ZM55.8437 519.587C52.8304 523.328 51.584 528.638 51.584 534.985H57.584C57.584 529.263 58.735 525.563 60.5163 523.351L55.8437 519.587ZM51.584 534.985L51.584 550.361H57.584L57.584 534.985H51.584ZM54.584 553.361H84.344L84.344 547.361H54.584L54.584 553.361ZM87.344 550.361L87.344 536.101H81.344L81.344 550.361H87.344ZM91.536 459.968L94.154 461.433L94.1644 461.415L94.1744 461.396L91.536 459.968ZM75.044 476.584L73.5361 473.991L73.5361 473.991L75.044 476.584ZM25.444 476.584L26.9651 473.998L26.9585 473.995L26.9519 473.991L25.444 476.584ZM9.076 459.968L6.43758 461.396L6.44113 461.403L6.44471 461.409L9.076 459.968ZM9.076 414.212L11.7073 415.653L11.7109 415.647L11.7144 415.64L9.076 414.212ZM25.444 397.472L26.9519 400.066L26.9585 400.062L26.9651 400.058L25.444 397.472ZM75.044 397.472L73.5361 400.066L73.5361 400.066L75.044 397.472ZM91.536 414.212L94.1673 412.771L94.1614 412.76L91.536 414.212ZM80.748 421.404L83.364 419.936L83.3542 419.918L83.3443 419.901L80.748 421.404ZM68.968 410.244L67.5432 412.884L67.5508 412.888L67.5585 412.892L68.968 410.244ZM31.768 410.244L33.16 412.902L33.1854 412.888L33.2105 412.875L31.768 410.244ZM19.988 421.404L22.5927 422.893L22.5984 422.883L22.6039 422.873L19.988 421.404ZM19.988 452.776L17.372 454.245L17.372 454.245L19.988 452.776ZM31.768 463.936L33.1775 461.288L33.1688 461.283L33.16 461.279L31.768 463.936ZM68.968 463.812L70.3928 466.452L70.4017 466.447L70.4105 466.443L68.968 463.812ZM80.748 452.528L83.3443 454.031L83.3598 454.005L83.3747 453.977L80.748 452.528ZM94.24 437.028C94.24 444.814 92.4545 451.968 88.8976 458.54L94.1744 461.396C98.2228 453.915 100.24 445.775 100.24 437.028H94.24ZM88.918 458.503C85.304 464.962 80.1973 470.118 73.5361 473.991L76.5519 479.178C84.1094 474.784 89.9973 468.862 94.154 461.433L88.918 458.503ZM73.5361 473.991C66.9482 477.821 59.2168 479.784 50.244 479.784V485.784C60.1192 485.784 68.9212 483.614 76.5519 479.178L73.5361 473.991ZM50.244 479.784C41.1823 479.784 33.4589 477.818 26.9651 473.998L23.9229 479.17C31.4824 483.617 40.2923 485.784 50.244 485.784V479.784ZM26.9519 473.991C20.2958 470.121 15.237 464.973 11.7073 458.527L6.44471 461.409C10.5203 468.852 16.3735 474.781 23.9361 479.178L26.9519 473.991ZM11.7144 458.54C8.15746 451.968 6.372 444.814 6.372 437.028H0.371995C0.371995 445.775 2.3892 453.915 6.43758 461.396L11.7144 458.54ZM6.372 437.028C6.372 429.242 8.15737 422.136 11.7073 415.653L6.44471 412.771C2.38928 420.177 0.371995 428.281 0.371995 437.028H6.372ZM11.7144 415.64C15.2466 409.113 20.3047 403.93 26.9519 400.066L23.9361 394.879C16.3646 399.281 10.5107 405.258 6.43758 412.784L11.7144 415.64ZM26.9651 400.058C33.4589 396.238 41.1823 394.272 50.244 394.272V388.272C40.2923 388.272 31.4824 390.44 23.9229 394.886L26.9651 400.058ZM50.244 394.272C59.2168 394.272 66.9482 396.235 73.5361 400.066L76.5519 394.879C68.9212 390.442 60.1192 388.272 50.244 388.272V394.272ZM73.5361 400.066C80.1885 403.933 85.2943 409.124 88.9106 415.664L94.1614 412.76C90.007 405.247 84.1181 399.278 76.5519 394.879L73.5361 400.066ZM88.9047 415.653C92.4546 422.136 94.24 429.242 94.24 437.028H100.24C100.24 428.281 98.2227 420.177 94.1673 412.771L88.9047 415.653ZM87.716 437.028C87.716 430.839 86.2752 425.121 83.364 419.936L78.132 422.873C80.5115 427.111 81.716 431.809 81.716 437.028H87.716ZM83.3443 419.901C80.3166 414.671 75.9634 410.569 70.3775 407.596L67.5585 412.892C72.2233 415.375 75.7234 418.713 78.1517 422.907L83.3443 419.901ZM70.3928 407.604C64.6623 404.511 57.9513 403.028 50.368 403.028V409.028C57.1687 409.028 62.8577 410.356 67.5432 412.884L70.3928 407.604ZM50.368 403.028C42.7105 403.028 35.9885 404.508 30.3255 407.614L33.2105 412.875C37.7982 410.359 43.4761 409.028 50.368 409.028V403.028ZM30.376 407.587C24.7007 410.559 20.3267 414.673 17.372 419.936L22.6039 422.873C24.94 418.712 28.4193 415.385 33.16 412.902L30.376 407.587ZM17.3833 419.916C14.4571 425.037 13.02 430.765 13.02 437.028H19.02C19.02 431.718 20.2283 427.03 22.5927 422.893L17.3833 419.916ZM13.02 437.028C13.02 443.292 14.4571 449.053 17.372 454.245L22.6039 451.308C20.2282 447.076 19.02 442.338 19.02 437.028H13.02ZM17.372 454.245C20.3267 459.508 24.7007 463.621 30.376 466.594L33.16 461.279C28.4193 458.795 24.94 455.469 22.6039 451.308L17.372 454.245ZM30.3585 466.584C36.0139 469.595 42.7237 471.028 50.368 471.028V465.028C43.463 465.028 37.7727 463.734 33.1775 461.288L30.3585 466.584ZM50.368 471.028C57.9513 471.028 64.6623 469.545 70.3928 466.452L67.5432 461.172C62.8577 463.701 57.1687 465.028 50.368 465.028V471.028ZM70.4105 466.443C75.9794 463.389 80.3216 459.252 83.3443 454.031L78.1517 451.025C75.7184 455.228 72.2072 458.614 67.5255 461.182L70.4105 466.443ZM83.3747 453.977C86.2678 448.734 87.716 443.068 87.716 437.028H81.716C81.716 442.066 80.5188 446.733 78.1213 451.079L83.3747 453.977ZM86.948 361.756L85.1526 359.353L85.1526 359.353L86.948 361.756ZM4.86 369.444H1.86V372.444H4.86V369.444ZM4.86 355.556V352.556H1.86V355.556H4.86ZM78.144 351.216L79.8415 353.69L79.853 353.682L79.8644 353.674L78.144 351.216ZM78.268 322.82L76.5476 325.278L76.5578 325.285L78.268 322.82ZM4.86 318.48H1.86V321.48H4.86V318.48ZM4.86 304.468V301.468H1.86V304.468H4.86ZM86.948 312.652L85.0945 315.011L85.0983 315.014L86.948 312.652ZM94.24 336.956C94.24 347.759 91.0188 354.971 85.1526 359.353L88.7434 364.16C96.5999 358.291 100.24 348.969 100.24 336.956H94.24ZM85.1526 359.353C79.0183 363.935 69.7989 366.444 57.064 366.444V372.444C70.4518 372.444 81.155 369.828 88.7434 364.16L85.1526 359.353ZM57.064 366.444H4.86V372.444H57.064V366.444ZM7.86 369.444V355.556H1.86V369.444H7.86ZM4.86 358.556H57.312V352.556H4.86V358.556ZM57.312 358.556C67.1301 358.556 74.8477 357.117 79.8415 353.69L76.4465 348.743C73.0083 351.102 66.8379 352.556 57.312 352.556V358.556ZM79.8644 353.674C85.0404 350.051 87.344 344.212 87.344 336.956H81.344C81.344 342.927 79.5142 346.595 76.4236 348.759L79.8644 353.674ZM87.344 336.956C87.344 329.728 85.0984 323.908 79.9782 320.356L76.5578 325.285C79.5389 327.354 81.344 330.958 81.344 336.956H87.344ZM79.9884 320.363C75.0596 316.912 67.2733 315.48 57.312 315.48L57.312 321.48C67.0253 321.48 73.2098 322.942 76.5476 325.278L79.9884 320.363ZM57.312 315.48H4.86V321.48H57.312L57.312 315.48ZM7.86 318.48V304.468H1.86V318.48H7.86ZM4.86 307.468H57.064V301.468H4.86V307.468ZM57.064 307.468C69.6746 307.468 78.8768 310.126 85.0945 315.011L88.8015 310.293C81.1312 304.267 70.4107 301.468 57.064 301.468V307.468ZM85.0983 315.014C91.0592 319.682 94.24 326.802 94.24 336.956H100.24C100.24 325.451 96.5595 316.369 88.7977 310.29L85.0983 315.014ZM17.012 263.849V260.849H14.012V263.849H17.012ZM17.012 287.161V290.161H20.012V287.161H17.012ZM4.86 287.161H1.86V290.161H4.86V287.161ZM4.86 226.525V223.525H1.86V226.525H4.86ZM17.012 226.525H20.012V223.525H17.012V226.525ZM17.012 250.085H14.012V253.085H17.012V250.085ZM96 250.085H99V247.085H96V250.085ZM96 263.849V266.849H99V263.849H96ZM14.012 263.849V287.161H20.012V263.849H14.012ZM17.012 284.161H4.86V290.161H17.012V284.161ZM7.86 287.161L7.86 226.525H1.86L1.86 287.161H7.86ZM4.86 229.525H17.012V223.525H4.86V229.525ZM14.012 226.525V250.085H20.012V226.525H14.012ZM17.012 253.085H96V247.085H17.012V253.085ZM93 250.085V263.849H99V250.085H93ZM96 260.849H17.012V266.849H96V260.849ZM53.468 144.443L54.6815 147.187L54.7638 147.151L54.8437 147.109L53.468 144.443ZM40.572 150.147L39.3585 147.404L30.7294 151.22L39.9782 153.088L40.572 150.147ZM53.468 152.751L52.8742 155.692L52.8846 155.694L53.468 152.751ZM96 161.183H99V158.72L96.5834 158.241L96 161.183ZM96 174.947L95.3924 177.885L99 178.631V174.947H96ZM4.86 156.099H1.86V158.542L4.25245 159.037L4.86 156.099ZM4.86 154.611L3.49953 151.938L1.86 152.772V154.611H4.86ZM54.088 129.563L52.8543 126.829L52.7902 126.858L52.7275 126.89L54.088 129.563ZM70.58 122.123L71.8137 124.858L77.8754 122.123L71.8137 119.389L70.58 122.123ZM54.088 114.683L52.7491 117.368L52.8012 117.394L52.8543 117.418L54.088 114.683ZM4.86 90.1314H1.86V91.9876L3.52106 92.816L4.86 90.1314ZM4.86 88.7674L4.2295 85.8344L1.86 86.3438V88.7674H4.86ZM96 69.1754H99V65.462L95.3695 66.2424L96 69.1754ZM96 82.8154L96.6327 85.7479L99 85.2372V82.8154H96ZM53.468 91.9914L54.0889 94.9265L54.1007 94.9239L53.468 91.9914ZM40.572 94.7194L39.9511 91.7843L30.0367 93.8816L39.4951 97.5194L40.572 94.7194ZM53.468 99.6794L54.8499 97.0166L54.7012 96.9395L54.5449 96.8794L53.468 99.6794ZM96 121.751H99V119.928L97.3819 119.089L96 121.751ZM96 122.495L97.3757 125.161L99 124.323V122.495H96ZM52.2545 141.7L39.3585 147.404L41.7855 152.891L54.6815 147.187L52.2545 141.7ZM39.9782 153.088L52.8742 155.692L54.0618 149.811L41.1658 147.207L39.9782 153.088ZM52.8846 155.694L95.4166 164.126L96.5834 158.241L54.0514 149.809L52.8846 155.694ZM93 161.183V174.947H99V161.183H93ZM96.6076 172.01L5.46755 153.162L4.25245 159.037L95.3924 177.885L96.6076 172.01ZM7.86 156.099V154.611H1.86V156.099H7.86ZM6.22046 157.285L55.4485 132.237L52.7275 126.89L3.49953 151.938L6.22046 157.285ZM55.3217 132.298L71.8137 124.858L69.3463 119.389L52.8543 126.829L55.3217 132.298ZM71.8137 119.389L55.3217 111.949L52.8543 117.418L69.3463 124.858L71.8137 119.389ZM55.4269 111.999L6.19893 87.4468L3.52106 92.816L52.7491 117.368L55.4269 111.999ZM7.86 90.1314V88.7674H1.86V90.1314H7.86ZM5.49049 91.7004L96.6305 72.1084L95.3695 66.2424L4.2295 85.8344L5.49049 91.7004ZM93 69.1754V82.8154H99V69.1754H93ZM95.3673 79.8829L52.8353 89.0589L54.1007 94.9239L96.6327 85.7479L95.3673 79.8829ZM52.8471 89.0563L39.9511 91.7843L41.1929 97.6544L54.0889 94.9264L52.8471 89.0563ZM39.4951 97.5194L52.3911 102.479L54.5449 96.8794L41.6489 91.9193L39.4951 97.5194ZM52.0861 102.342L94.6181 124.414L97.3819 119.089L54.8499 97.0166L52.0861 102.342ZM93 121.751V122.495H99V121.751H93ZM94.6243 119.829L52.0923 141.777L54.8437 147.109L97.3757 125.161L94.6243 119.829ZM4.86 49.6415H1.86V52.6415H4.86V49.6415ZM4.86 9.71351V6.71351H1.86V9.71351H4.86ZM17.012 9.71351H20.012V6.71351H17.012V9.71351ZM17.012 35.8775H14.012V38.8775H17.012V35.8775ZM42.184 35.8775V38.8775H45.184V35.8775H42.184ZM42.184 14.7975V11.7975H39.184V14.7975H42.184ZM54.584 14.7975H57.584V11.7975H54.584V14.7975ZM54.584 35.8775H51.584V38.8775H54.584V35.8775ZM83.724 35.8775V38.8775H86.724V35.8775H83.724ZM83.724 5.62151V2.62151H80.724V5.62151H83.724ZM96 5.62151H99V2.62151H96V5.62151ZM96 49.6415V52.6415H99V49.6415H96ZM7.86 49.6415L7.86 9.71351H1.86L1.86 49.6415H7.86ZM4.86 12.7135H17.012V6.71351H4.86V12.7135ZM14.012 9.71351L14.012 35.8775H20.012L20.012 9.71351H14.012ZM17.012 38.8775H42.184V32.8775H17.012V38.8775ZM45.184 35.8775V14.7975H39.184V35.8775H45.184ZM42.184 17.7975H54.584V11.7975H42.184V17.7975ZM51.584 14.7975V35.8775H57.584V14.7975H51.584ZM54.584 38.8775H83.724V32.8775H54.584V38.8775ZM86.724 35.8775V5.62151H80.724V35.8775H86.724ZM83.724 8.62151H96V2.62151H83.724V8.62151ZM93 5.62151V49.6415H99V5.62151H93ZM96 46.6415H4.86V52.6415H96V46.6415Z" fill="url(#paint0_linear_57_36)" fill-opacity="0.16" mask="url(#path-1-outside-1_57_36)"/>
</g>
<defs>
<linearGradient id="paint0_linear_57_36" x1="45.5" y1="1" x2="45.5" y2="666" gradientUnits="userSpaceOnUse">
<stop stop-color="white" stop-opacity="0.1"/>
<stop offset="1" stop-color="white"/>
</linearGradient>
<clipPath id="clip0_57_36">
<rect width="100" height="672" fill="white"/>
</clipPath>
</defs>
</svg>
