<svg xmlns="http://www.w3.org/2000/svg" viewBox="0 0 64 64" id="laptop"  fill="#ececec"><path  d="M40,49.18h0c0,1.06-.61,1.93-1.36,1.93H25.35c-.75,0-1.36-.87-1.36-1.93H40Z"></path><path  d="M64 49.18c-1 2.82-3.77 4.6-7.24 4.6H7.25C3.77 53.78 1 52 0 49.18H21.91a3.45 3.45 0 0 0 3.44 3.44h13.3a3.44 3.44 0 0 0 3.44-3.44H64zM58.06 10.22H5.94a2.17 2.17 0 0 0-2.16 2.16V47.1H60.22V12.38A2.16 2.16 0 0 0 58.06 10.22zM57.5 43.34a1 1 0 0 1-1 1H7.55a1 1 0 0 1-1-1V14a1 1 0 0 1 1-1H56.46a1 1 0 0 1 1 1z"></path><rect width="46.83" height="27.28" x="8.59" y="15.02" ></rect></svg>