<svg width="145" height="49" viewBox="0 0 145 49" fill="none" xmlns="http://www.w3.org/2000/svg">
<path d="M64.5465 6L72.8811 23.49H69.8439L68.3606 20.0681H60.4263L58.943 23.49H56L64.2875 6H64.5465ZM63.3693 13.438L61.4858 17.668H67.3247L65.4647 13.4618L64.4523 11.0617H64.4052L63.3693 13.438Z" fill="url(#paint0_linear_30_10)"/>
<path d="M76.4497 6.02376H79.1102V21.1137H84.078V23.49H76.4497V6.02376Z" fill="url(#paint1_linear_30_10)"/>
<path d="M88.7313 6.02376H93.134C95.614 6.02376 97.2621 6.44359 98.0783 7.28324C98.8945 8.12289 99.3026 9.1368 99.3026 10.325C99.3026 11.1171 99.1299 11.8696 98.7846 12.5825C98.4393 13.2796 97.8899 13.8024 97.1365 14.1509C98.2509 14.4361 99.0671 14.9351 99.5851 15.648C100.119 16.361 100.386 17.2006 100.386 18.167C100.386 19.1809 100.229 20.0681 99.9147 20.8285C99.6008 21.589 98.9494 22.2227 97.9605 22.7296C96.9717 23.2366 95.5433 23.49 93.6755 23.49H88.7313V6.02376ZM93.5578 13.438C94.6722 13.438 95.4649 13.1687 95.9358 12.6301C96.4066 12.0756 96.6421 11.3785 96.6421 10.5389C96.6421 9.03383 95.5747 8.28131 93.4401 8.28131H91.3211V13.438H93.5578ZM94.0287 21.2563C95.457 21.2563 96.4145 20.9711 96.9011 20.4008C97.4033 19.8146 97.6545 19.0779 97.6545 18.1908C97.6545 17.3511 97.3719 16.7016 96.8069 16.2421C96.2418 15.7827 95.3864 15.553 94.2406 15.553H91.3211V21.2563H94.0287Z" fill="url(#paint2_linear_30_10)"/>
<path d="M105.565 6.02376H113.146V8.3526H108.178V13.1766H112.181V15.553H108.178V21.1374H113.923V23.49H105.565V6.02376Z" fill="url(#paint3_linear_30_10)"/>
<path d="M127.338 23.49L123.854 16.8838C123.132 16.9154 122.488 16.9313 121.923 16.9313H121.264V23.49H118.698V6.02376H122.629C124.623 6.02376 126.263 6.44359 127.55 7.28324C128.837 8.10704 129.481 9.45365 129.481 11.3231C129.481 12.4954 129.206 13.5093 128.657 14.3648C128.123 15.2045 127.323 15.854 126.255 16.3134L130.375 23.49H127.338ZM122.935 14.7688C124.474 14.7688 125.525 14.4361 126.09 13.7707C126.671 13.0895 126.962 12.2815 126.962 11.3468C126.962 9.27146 125.588 8.23378 122.841 8.23378H121.264V14.7688H122.935Z" fill="url(#paint4_linear_30_10)"/>
<path d="M137.54 8.3526H133.114V6.02376H144.627V8.3526H140.154V23.49H137.54V8.3526Z" fill="url(#paint5_linear_30_10)"/>
<path d="M62.2627 41.453L62.9055 40.5547L62.8725 39.0742L62.1309 38.2758L57.9447 35.9303L57.1866 34.1338L57.3349 32.5701L58.2743 31.2893L60.5652 30.5241L63.0867 30.7237L63.8613 30.6572L63.7295 31.5055L63.746 33.6847L63.1362 33.8177L62.7077 31.622L60.7629 31.3558L59.0984 31.9879L58.7193 33.0858L59.0819 34.4997L63.2351 36.7953L64.4547 38.0762L64.5206 40.7044L63.2516 42.3013L60.8289 42.8337L57.7799 42.4677L57.0053 42.3513L57.1372 41.7025L57.2855 39.5234L57.8953 39.3903L58.159 41.5861L60.1696 41.9354L62.2627 41.453Z" fill="url(#paint6_linear_30_10)"/>
<path d="M68.7054 37.6437L68.8702 41.6692L70.4689 42.0019L70.3865 42.6673L68.0462 42.501L65.7883 42.6673L65.8213 42.0019L67.1892 41.6692L67.3046 37.4108L67.2222 31.6885L65.8707 31.3558L65.9531 30.6904L67.9638 30.8568L70.1722 30.6738L71.5237 30.7736L72.8586 31.2061L74.1606 32.2042L74.5726 33.9175L74.276 35.764L73.2706 36.9284L70.37 37.8433L68.7054 37.6437ZM68.8208 31.6053L68.7219 36.9118L70.1722 37.0947L72.3971 36.1466L72.8751 34.2669L72.529 32.7365L71.227 31.4556L68.8208 31.6053Z" fill="url(#paint7_linear_30_10)"/>
<path d="M78.5023 31.9879L78.8154 30.5241L79.623 30.391L81.9303 36.5458L84.0563 41.6692L85.4407 42.0019L85.3583 42.6673L83.3477 42.501L80.8426 42.6673L80.8755 42.0019L82.227 41.6692L81.0733 38.5087L79.0791 38.4421L77.1838 38.5087L76.1126 41.6692L77.3651 42.0019L77.2827 42.6673L75.272 42.501L73.7558 42.6673L73.7887 42.0019L75.0743 41.6692L77.019 36.5624L78.5023 31.9879ZM78.9802 32.5701L77.4805 37.5938L79.0791 37.6603L80.7437 37.5938L79.6889 34.9322L79.0132 32.5701H78.9802Z" fill="url(#paint8_linear_30_10)"/>
<path d="M88.5984 37.2112L88.7632 41.6692L90.3618 42.0019L90.2794 42.6673L87.9391 42.501L85.6812 42.6673L85.7142 42.0019L87.0821 41.6692L87.1975 37.4108L87.1151 31.6885L85.7636 31.3558L85.846 30.6904L87.8567 30.8568L90.0651 30.6738L91.4166 30.7736L92.7515 31.2061L94.0535 32.2042L94.4655 33.9175L94.1689 35.764L93.1636 36.4959L92.0758 36.8119L94.4326 41.8522H95.7181L95.817 42.4012L93.8887 42.8004L92.8175 41.9188L90.7738 37.1779L90.2629 37.311L88.5984 37.2112ZM88.7137 31.6053L88.6148 36.4793L90.0651 36.5624L92.2901 35.7141L92.768 34.2669L92.4219 32.7365L91.1199 31.4556L88.7137 31.6053Z" fill="url(#paint9_linear_30_10)"/>
<path d="M99.3495 37.2112L99.5144 41.6692L101.113 42.0019L101.031 42.6673L98.6903 42.501L96.4324 42.6673L96.4654 42.0019L97.8333 41.6692L97.9487 37.4108L97.8663 31.6885L96.5148 31.3558L96.5972 30.6904L98.6079 30.8568L100.816 30.6738L102.168 30.7736L103.503 31.2061L104.805 32.2042L105.217 33.9175L104.92 35.764L103.915 36.4959L102.827 36.8119L105.184 41.8522H106.469L106.568 42.4012L104.64 42.8004L103.569 41.9188L101.525 37.1779L101.014 37.311L99.3495 37.2112ZM99.4649 31.6053L99.366 36.4793L100.816 36.5624L103.041 35.7141L103.519 34.2669L103.173 32.7365L101.871 31.4556L99.4649 31.6053Z" fill="url(#paint10_linear_30_10)"/>
<path d="M108.37 40.2054L109.013 31.6885L107.662 31.3558L107.744 30.7736L109.755 30.8568H110.826V31.1895L113.397 37.6603L114.139 39.8394H114.172L114.831 37.7767L117.435 31.1895V30.8568H118.424L120.681 30.7736L120.648 31.3558L119.281 31.6885L120.006 40.0058L120.302 41.7025L121.423 42.0019L121.341 42.5841L119.33 42.501L117.072 42.5841L117.105 42.0019L118.292 41.7191L118.341 40.1721L118.193 37.6769L117.731 32.6866H117.649L117.006 34.716L114.32 41.7358L114.584 42.501L113.792 42.8337L113.479 42.0518L110.414 34.6661L109.771 32.6866H109.705L109.359 38.0595L109.293 40.2387L109.326 41.6859L110.529 42.0186L110.447 42.6008L108.716 42.501L106.953 42.5841L106.986 42.0019L108.123 41.6692L108.37 40.2054Z" fill="url(#paint11_linear_30_10)"/>
<path d="M126.4 31.9879L126.713 30.5241L127.52 30.391L129.828 36.5458L131.954 41.6692L133.338 42.0019L133.256 42.6673L131.245 42.501L128.74 42.6673L128.773 42.0019L130.124 41.6692L128.971 38.5087L126.977 38.4421L125.081 38.5087L124.01 41.6692L125.263 42.0019L125.18 42.6673L123.17 42.501L121.653 42.6673L121.686 42.0019L122.972 41.6692L124.917 36.5624L126.4 31.9879ZM126.878 32.5701L125.378 37.5938L126.977 37.6603L128.641 37.5938L127.586 34.9322L126.911 32.5701H126.878Z" fill="url(#paint12_linear_30_10)"/>
<path d="M143.187 30.8568L145 30.6904L144.967 31.3558L143.698 31.6386L143.616 32.9028L143.747 42.8337L143.253 43L142.973 42.501L139.001 37.3942L136.463 34.1671L135.804 32.9028H135.771L135.82 34.3168V40.3052L135.837 41.7191L137.089 42.0186L137.007 42.6673L135.276 42.501L133.595 42.6673L133.628 42.0019L134.749 41.7358L134.881 40.3052L134.996 31.6885L133.645 31.3558L133.727 30.6904L135.738 30.8568H136.562L137.023 31.8881L141.391 37.7601L142.775 40.0224H142.808L142.792 38.4255L142.742 32.9527L142.66 31.6386L141.457 31.3558L141.539 30.6904L143.187 30.8568Z" fill="url(#paint13_linear_30_10)"/>
<path d="M41 49V0L0 49H5.16211L40.4033 2.03802L11.5814 49H18.1658L40.5137 1.8865L40.5218 1.84686L40.5186 1.8762L40.5304 1.85142L40.5173 1.88823L35.4031 49H41Z" fill="url(#paint14_linear_30_10)"/>
<path d="M30.9224 49H23.7999L40.5081 1.91421L30.9224 49Z" fill="url(#paint15_linear_30_10)"/>
<defs>
<linearGradient id="paint0_linear_30_10" x1="67.6024" y1="-11.4554" x2="75.9646" y2="54.9585" gradientUnits="userSpaceOnUse">
<stop offset="0.24" stop-color="#D3C7AE"/>
<stop offset="1" stop-color="#ECECEC"/>
</linearGradient>
<linearGradient id="paint1_linear_30_10" x1="67.6024" y1="-11.4554" x2="75.9646" y2="54.9585" gradientUnits="userSpaceOnUse">
<stop offset="0.24" stop-color="#D3C7AE"/>
<stop offset="1" stop-color="#ECECEC"/>
</linearGradient>
<linearGradient id="paint2_linear_30_10" x1="67.6024" y1="-11.4554" x2="75.9646" y2="54.9585" gradientUnits="userSpaceOnUse">
<stop offset="0.24" stop-color="#D3C7AE"/>
<stop offset="1" stop-color="#ECECEC"/>
</linearGradient>
<linearGradient id="paint3_linear_30_10" x1="67.6024" y1="-11.4554" x2="75.9646" y2="54.9585" gradientUnits="userSpaceOnUse">
<stop offset="0.24" stop-color="#D3C7AE"/>
<stop offset="1" stop-color="#ECECEC"/>
</linearGradient>
<linearGradient id="paint4_linear_30_10" x1="67.6024" y1="-11.4554" x2="75.9646" y2="54.9585" gradientUnits="userSpaceOnUse">
<stop offset="0.24" stop-color="#D3C7AE"/>
<stop offset="1" stop-color="#ECECEC"/>
</linearGradient>
<linearGradient id="paint5_linear_30_10" x1="67.6024" y1="-11.4554" x2="75.9646" y2="54.9585" gradientUnits="userSpaceOnUse">
<stop offset="0.24" stop-color="#D3C7AE"/>
<stop offset="1" stop-color="#ECECEC"/>
</linearGradient>
<linearGradient id="paint6_linear_30_10" x1="67.6024" y1="-11.4554" x2="75.9646" y2="54.9585" gradientUnits="userSpaceOnUse">
<stop offset="0.24" stop-color="#D3C7AE"/>
<stop offset="1" stop-color="#ECECEC"/>
</linearGradient>
<linearGradient id="paint7_linear_30_10" x1="67.6024" y1="-11.4554" x2="75.9646" y2="54.9585" gradientUnits="userSpaceOnUse">
<stop offset="0.24" stop-color="#D3C7AE"/>
<stop offset="1" stop-color="#ECECEC"/>
</linearGradient>
<linearGradient id="paint8_linear_30_10" x1="67.6024" y1="-11.4554" x2="75.9646" y2="54.9585" gradientUnits="userSpaceOnUse">
<stop offset="0.24" stop-color="#D3C7AE"/>
<stop offset="1" stop-color="#ECECEC"/>
</linearGradient>
<linearGradient id="paint9_linear_30_10" x1="67.6024" y1="-11.4554" x2="75.9646" y2="54.9585" gradientUnits="userSpaceOnUse">
<stop offset="0.24" stop-color="#D3C7AE"/>
<stop offset="1" stop-color="#ECECEC"/>
</linearGradient>
<linearGradient id="paint10_linear_30_10" x1="67.6024" y1="-11.4554" x2="75.9646" y2="54.9585" gradientUnits="userSpaceOnUse">
<stop offset="0.24" stop-color="#D3C7AE"/>
<stop offset="1" stop-color="#ECECEC"/>
</linearGradient>
<linearGradient id="paint11_linear_30_10" x1="67.6024" y1="-11.4554" x2="75.9646" y2="54.9585" gradientUnits="userSpaceOnUse">
<stop offset="0.24" stop-color="#D3C7AE"/>
<stop offset="1" stop-color="#ECECEC"/>
</linearGradient>
<linearGradient id="paint12_linear_30_10" x1="67.6024" y1="-11.4554" x2="75.9646" y2="54.9585" gradientUnits="userSpaceOnUse">
<stop offset="0.24" stop-color="#D3C7AE"/>
<stop offset="1" stop-color="#ECECEC"/>
</linearGradient>
<linearGradient id="paint13_linear_30_10" x1="67.6024" y1="-11.4554" x2="75.9646" y2="54.9585" gradientUnits="userSpaceOnUse">
<stop offset="0.24" stop-color="#D3C7AE"/>
<stop offset="1" stop-color="#ECECEC"/>
</linearGradient>
<linearGradient id="paint14_linear_30_10" x1="31.5181" y1="-1.04851e-06" x2="9.07013" y2="48.8106" gradientUnits="userSpaceOnUse">
<stop offset="0.22" stop-color="#D3C7AE"/>
<stop offset="1" stop-color="#ECECEC"/>
</linearGradient>
<linearGradient id="paint15_linear_30_10" x1="31.5181" y1="-1.04851e-06" x2="9.07013" y2="48.8106" gradientUnits="userSpaceOnUse">
<stop offset="0.22" stop-color="#D3C7AE"/>
<stop offset="1" stop-color="#ECECEC"/>
</linearGradient>
</defs>
</svg>
