<svg xmlns="http://www.w3.org/2000/svg" viewBox="0 0 47.49 47.48" id="project" fill="#ececec"><rect width="8.68" height="5.83" y="9.78" rx="1.98"></rect><path d="M0 21.5v21.48a2 2 0 0 0 .57 1.37l2.7 2.68a1.51 1.51 0 0 0 2.15 0l2.69-2.68a1.93 1.93 0 0 0 .57-1.37V21.5a1.94 1.94 0 0 0-1.94-1.94H1.95A1.94 1.94 0 0 0 0 21.5zM47.49 7.82v37a2.73 2.73 0 0 1-2.78 2.68H18.13a2.73 2.73 0 0 1-2.78-2.68V2.68A2.73 2.73 0 0 1 18.13 0h21.24v6.57a1.17 1.17 0 0 0 1.12 1.22z"></path><path d="m41.32 0 6.17 5.94H42a.68.68 0 0 1-.68-.68Z"></path></svg>